<mxfile host="app.diagrams.net" modified="2020-08-28T06:37:53.285Z" agent="5.0 (Windows NT 10.0; Win64; x64) AppleWebKit/537.36 (KHTML, like Gecko) Chrome/84.0.4147.135 Safari/537.36" etag="9B8uUIyPjz664IF0iL3q" version="13.6.4" type="github">
  <diagram id="khHgUFAwdmXEfH2Ma4rk" name="Page-1">
    <mxGraphModel dx="816" dy="423" grid="1" gridSize="10" guides="1" tooltips="1" connect="1" arrows="1" fold="1" page="1" pageScale="1" pageWidth="850" pageHeight="1100" math="0" shadow="0">
      <root>
        <mxCell id="0" />
        <mxCell id="1" parent="0" />
        <mxCell id="E1dYd68VwHDF5olHRWXh-1" value="" style="ellipse;whiteSpace=wrap;html=1;aspect=fixed;" parent="1" vertex="1">
          <mxGeometry x="310" y="210" width="242.5" height="242.5" as="geometry" />
        </mxCell>
        <mxCell id="E1dYd68VwHDF5olHRWXh-2" value="&lt;font style=&quot;font-size: 19px&quot;&gt;&amp;nbsp; &amp;nbsp;INFORMATION &lt;br&gt;&amp;nbsp; &amp;nbsp;POOL&lt;br&gt;&amp;nbsp;SYSTEM&lt;/font&gt;" style="text;html=1;strokeColor=none;fillColor=none;align=center;verticalAlign=middle;whiteSpace=wrap;rounded=0;fontSize=15;" parent="1" vertex="1">
          <mxGeometry x="330" y="240" width="190" height="180" as="geometry" />
        </mxCell>
        <mxCell id="E1dYd68VwHDF5olHRWXh-3" value="" style="rounded=0;whiteSpace=wrap;html=1;" parent="1" vertex="1">
          <mxGeometry x="65" y="140" width="140" height="70" as="geometry" />
        </mxCell>
        <mxCell id="E1dYd68VwHDF5olHRWXh-4" value="" style="rounded=0;whiteSpace=wrap;html=1;" parent="1" vertex="1">
          <mxGeometry x="55" y="370" width="150" height="70" as="geometry" />
        </mxCell>
        <mxCell id="E1dYd68VwHDF5olHRWXh-5" value="" style="rounded=0;whiteSpace=wrap;html=1;" parent="1" vertex="1">
          <mxGeometry x="330" y="50" width="180" height="70" as="geometry" />
        </mxCell>
        <mxCell id="E1dYd68VwHDF5olHRWXh-6" value="" style="rounded=0;whiteSpace=wrap;html=1;" parent="1" vertex="1">
          <mxGeometry x="630" y="120" width="140" height="70" as="geometry" />
        </mxCell>
        <mxCell id="E1dYd68VwHDF5olHRWXh-7" value="" style="rounded=0;whiteSpace=wrap;html=1;" parent="1" vertex="1">
          <mxGeometry x="670" y="380" width="150" height="70" as="geometry" />
        </mxCell>
        <mxCell id="E1dYd68VwHDF5olHRWXh-8" value="" style="rounded=0;whiteSpace=wrap;html=1;" parent="1" vertex="1">
          <mxGeometry x="320" y="560" width="230" height="75" as="geometry" />
        </mxCell>
        <mxCell id="E1dYd68VwHDF5olHRWXh-9" value="STUDENT&lt;br&gt;" style="text;html=1;strokeColor=none;fillColor=none;align=center;verticalAlign=middle;whiteSpace=wrap;rounded=0;fontSize=15;" parent="1" vertex="1">
          <mxGeometry x="90" y="160" width="90" height="30" as="geometry" />
        </mxCell>
        <mxCell id="E1dYd68VwHDF5olHRWXh-12" value="FACULTY" style="text;html=1;strokeColor=none;fillColor=none;align=center;verticalAlign=middle;whiteSpace=wrap;rounded=0;fontSize=15;" parent="1" vertex="1">
          <mxGeometry x="625" y="112.5" width="150" height="85" as="geometry" />
        </mxCell>
        <mxCell id="E1dYd68VwHDF5olHRWXh-13" value="ADMINISTRATION" style="text;html=1;strokeColor=none;fillColor=none;align=center;verticalAlign=middle;whiteSpace=wrap;rounded=0;fontSize=15;" parent="1" vertex="1">
          <mxGeometry x="365" y="70" width="110" height="30" as="geometry" />
        </mxCell>
        <mxCell id="E1dYd68VwHDF5olHRWXh-14" value="ATTENDENCE" style="text;html=1;strokeColor=none;fillColor=none;align=center;verticalAlign=middle;whiteSpace=wrap;rounded=0;fontSize=15;" parent="1" vertex="1">
          <mxGeometry x="80" y="390" width="110" height="30" as="geometry" />
        </mxCell>
        <mxCell id="E1dYd68VwHDF5olHRWXh-15" value="RESOURCE LIBRARY" style="text;html=1;strokeColor=none;fillColor=none;align=center;verticalAlign=middle;whiteSpace=wrap;rounded=0;fontSize=15;" parent="1" vertex="1">
          <mxGeometry x="371.25" y="567.5" width="120" height="60" as="geometry" />
        </mxCell>
        <mxCell id="E1dYd68VwHDF5olHRWXh-17" value="MARKS" style="text;html=1;strokeColor=none;fillColor=none;align=center;verticalAlign=middle;whiteSpace=wrap;rounded=0;fontSize=15;" parent="1" vertex="1">
          <mxGeometry x="680" y="380" width="120" height="70" as="geometry" />
        </mxCell>
        <mxCell id="E1dYd68VwHDF5olHRWXh-18" value="" style="endArrow=classic;startArrow=classic;html=1;fontSize=15;exitX=0.458;exitY=0;exitDx=0;exitDy=0;exitPerimeter=0;" parent="1" source="E1dYd68VwHDF5olHRWXh-1" edge="1">
          <mxGeometry width="50" height="50" relative="1" as="geometry">
            <mxPoint x="420" y="200" as="sourcePoint" />
            <mxPoint x="420" y="120" as="targetPoint" />
          </mxGeometry>
        </mxCell>
        <mxCell id="E1dYd68VwHDF5olHRWXh-21" value="" style="endArrow=classic;startArrow=classic;html=1;fontSize=15;entryX=0;entryY=0.5;entryDx=0;entryDy=0;" parent="1" target="E1dYd68VwHDF5olHRWXh-12" edge="1">
          <mxGeometry width="50" height="50" relative="1" as="geometry">
            <mxPoint x="520" y="250" as="sourcePoint" />
            <mxPoint x="570" y="200" as="targetPoint" />
          </mxGeometry>
        </mxCell>
        <mxCell id="E1dYd68VwHDF5olHRWXh-22" value="" style="endArrow=classic;startArrow=classic;html=1;fontSize=15;" parent="1" edge="1">
          <mxGeometry width="50" height="50" relative="1" as="geometry">
            <mxPoint x="210" y="390" as="sourcePoint" />
            <mxPoint x="307" y="331" as="targetPoint" />
          </mxGeometry>
        </mxCell>
        <mxCell id="E1dYd68VwHDF5olHRWXh-23" value="" style="endArrow=classic;startArrow=classic;html=1;fontSize=15;entryX=1;entryY=0.5;entryDx=0;entryDy=0;" parent="1" target="E1dYd68VwHDF5olHRWXh-3" edge="1">
          <mxGeometry width="50" height="50" relative="1" as="geometry">
            <mxPoint x="330" y="260" as="sourcePoint" />
            <mxPoint x="380" y="210" as="targetPoint" />
          </mxGeometry>
        </mxCell>
        <mxCell id="E1dYd68VwHDF5olHRWXh-24" value="" style="endArrow=classic;startArrow=classic;html=1;fontSize=15;exitX=1.006;exitY=0.581;exitDx=0;exitDy=0;exitPerimeter=0;entryX=0;entryY=0.5;entryDx=0;entryDy=0;" parent="1" source="E1dYd68VwHDF5olHRWXh-1" target="E1dYd68VwHDF5olHRWXh-7" edge="1">
          <mxGeometry width="50" height="50" relative="1" as="geometry">
            <mxPoint x="590" y="440" as="sourcePoint" />
            <mxPoint x="640" y="390" as="targetPoint" />
          </mxGeometry>
        </mxCell>
        <mxCell id="E1dYd68VwHDF5olHRWXh-25" value="" style="endArrow=classic;startArrow=classic;html=1;fontSize=15;entryX=0.5;entryY=1;entryDx=0;entryDy=0;" parent="1" target="E1dYd68VwHDF5olHRWXh-1" edge="1">
          <mxGeometry width="50" height="50" relative="1" as="geometry">
            <mxPoint x="431" y="559" as="sourcePoint" />
            <mxPoint x="430" y="470" as="targetPoint" />
          </mxGeometry>
        </mxCell>
        <mxCell id="E1dYd68VwHDF5olHRWXh-26" value="STUDENT DETAILS&lt;br style=&quot;font-size: 12px;&quot;&gt;" style="text;html=1;strokeColor=none;fillColor=none;align=center;verticalAlign=middle;whiteSpace=wrap;rounded=0;fontSize=12;rotation=90;" parent="1" vertex="1">
          <mxGeometry x="400" y="150.62" width="84.84" height="39.38" as="geometry" />
        </mxCell>
        <mxCell id="E1dYd68VwHDF5olHRWXh-27" value="PAYMENT DETAILS" style="text;html=1;strokeColor=none;fillColor=none;align=center;verticalAlign=middle;whiteSpace=wrap;rounded=0;fontSize=12;rotation=270;" parent="1" vertex="1">
          <mxGeometry x="337.64" y="148.25" width="107.1" height="37.65" as="geometry" />
        </mxCell>
        <mxCell id="E1dYd68VwHDF5olHRWXh-28" value="REGISTRATION" style="text;html=1;strokeColor=none;fillColor=none;align=center;verticalAlign=middle;whiteSpace=wrap;rounded=0;fontSize=12;rotation=0;" parent="1" vertex="1">
          <mxGeometry x="220" y="140" width="140" height="120" as="geometry" />
        </mxCell>
        <mxCell id="E1dYd68VwHDF5olHRWXh-29" value="STUDENT&#39;S INFORMATION DETAILS" style="text;html=1;strokeColor=none;fillColor=none;align=center;verticalAlign=middle;whiteSpace=wrap;rounded=0;fontSize=12;" parent="1" vertex="1">
          <mxGeometry x="165" y="210" width="145" height="70" as="geometry" />
        </mxCell>
        <mxCell id="E1dYd68VwHDF5olHRWXh-32" value="STUDY MATERIAL FOR STUDENT&amp;nbsp;" style="text;html=1;strokeColor=none;fillColor=none;align=center;verticalAlign=middle;whiteSpace=wrap;rounded=0;fontSize=12;rotation=270;" parent="1" vertex="1">
          <mxGeometry x="323.75" y="428.75" width="110" height="142.5" as="geometry" />
        </mxCell>
        <mxCell id="E1dYd68VwHDF5olHRWXh-33" value="FACULTY SAVE THE STUDY CONTENT&amp;nbsp;" style="text;html=1;strokeColor=none;fillColor=none;align=center;verticalAlign=middle;whiteSpace=wrap;rounded=0;fontSize=12;rotation=90;" parent="1" vertex="1">
          <mxGeometry x="420" y="456" width="111.56" height="93.75" as="geometry" />
        </mxCell>
        <mxCell id="E1dYd68VwHDF5olHRWXh-34" value="BY FACULTY&amp;nbsp;" style="text;html=1;strokeColor=none;fillColor=none;align=center;verticalAlign=middle;whiteSpace=wrap;rounded=0;fontSize=12;" parent="1" vertex="1">
          <mxGeometry x="147.5" y="310" width="180" height="70" as="geometry" />
        </mxCell>
        <mxCell id="E1dYd68VwHDF5olHRWXh-36" value="FOR STUDENT&amp;nbsp;" style="text;html=1;strokeColor=none;fillColor=none;align=center;verticalAlign=middle;whiteSpace=wrap;rounded=0;fontSize=12;" parent="1" vertex="1">
          <mxGeometry x="205" y="350" width="150" height="80" as="geometry" />
        </mxCell>
        <mxCell id="E1dYd68VwHDF5olHRWXh-40" value="UPLOADING MATERIALS FOR STUDENTS&amp;nbsp;" style="text;html=1;strokeColor=none;fillColor=none;align=center;verticalAlign=middle;whiteSpace=wrap;rounded=0;fontSize=12;" parent="1" vertex="1">
          <mxGeometry x="550" y="220" width="180" height="20" as="geometry" />
        </mxCell>
        <mxCell id="E1dYd68VwHDF5olHRWXh-43" value="FACULTY DETAILS" style="text;html=1;strokeColor=none;fillColor=none;align=center;verticalAlign=middle;whiteSpace=wrap;rounded=0;fontSize=12;" parent="1" vertex="1">
          <mxGeometry x="500" y="155" width="101.25" height="55" as="geometry" />
        </mxCell>
        <mxCell id="E1dYd68VwHDF5olHRWXh-45" value="FOR STUDENT&amp;nbsp;" style="text;html=1;strokeColor=none;fillColor=none;align=center;verticalAlign=middle;whiteSpace=wrap;rounded=0;fontSize=12;" parent="1" vertex="1">
          <mxGeometry x="530" y="360" width="130" height="90" as="geometry" />
        </mxCell>
        <mxCell id="E1dYd68VwHDF5olHRWXh-46" value="BY FACULTY&amp;nbsp;" style="text;html=1;strokeColor=none;fillColor=none;align=center;verticalAlign=middle;whiteSpace=wrap;rounded=0;fontSize=12;" parent="1" vertex="1">
          <mxGeometry x="552.5" y="330" width="148.44" height="60" as="geometry" />
        </mxCell>
        <mxCell id="E1dYd68VwHDF5olHRWXh-48" value="&lt;h1 style=&quot;font-size: 40px;&quot;&gt;DFD&amp;nbsp; OF 1 LEVEL&lt;/h1&gt;" style="text;html=1;strokeColor=none;fillColor=none;spacing=5;spacingTop=-20;whiteSpace=wrap;overflow=hidden;rounded=0;fontSize=40;" parent="1" vertex="1">
          <mxGeometry x="270" y="710" width="510" height="120" as="geometry" />
        </mxCell>
      </root>
    </mxGraphModel>
  </diagram>
</mxfile>
